<?xml version="1.0" encoding="utf-8"?>
<!-- Generator: Adobe Illustrator 22.0.1, SVG Export Plug-In . SVG Version: 6.00 Build 0)  -->
<svg version="1.1" id="Layer_1" xmlns="http://www.w3.org/2000/svg" xmlns:xlink="http://www.w3.org/1999/xlink" x="0px" y="0px"
	 viewBox="0 0 128 128" style="enable-background:new 0 0 128 128;" xml:space="preserve">
<style type="text/css">
	.st0{fill:#1B222B;}
	.st1{fill:#9FC1EA;}
</style>
<circle class="st0" cx="64" cy="64" r="64"/>
<g>
	<path class="st1" d="M42.3,82.5c2.1-0.2,6.2-1.4,7.8-3.9v3.2h7.6V52.1H44.5v7.4H50v9.4c0,4.9-2.6,5.8-5.8,5.8
		c-5.4,0-5.4-4.7-5.3-11.3V49.4c0-3.9-0.9-12.9,5.3-12.9c4.3,0.2,5.6,1.3,5.8,6v4h8v-6.2C57.6,31.2,51,29,44.2,29
		c-7.2,0-13.5,3-13.5,16.8v13.6C30.8,74,29.3,82.5,42.3,82.5z"/>
	<polygon class="st1" points="70.1,47.5 76.7,81.7 82.9,81.7 89.8,47.4 89.8,81.7 97.5,81.7 97.5,30.2 86.8,30.2 79.9,64.4 
		73.2,30.2 62.4,30.2 62.4,81.7 70.1,81.7 	"/>
	<rect x="30.5" y="84.9" class="st1" width="67" height="14.1"/>
</g>
</svg>
