<?xml version="1.0" encoding="utf-8"?>
<!-- Generator: Adobe Illustrator 22.0.1, SVG Export Plug-In . SVG Version: 6.00 Build 0)  -->
<svg version="1.1" id="Layer_1" xmlns="http://www.w3.org/2000/svg" xmlns:xlink="http://www.w3.org/1999/xlink" x="0px" y="0px"
	 viewBox="0 0 128 128" style="enable-background:new 0 0 128 128;" xml:space="preserve">
<style type="text/css">
	.st0{fill:#1B222B;}
	.st1{fill:#9FC1EA;}
	.st2{fill:none;stroke:#18453B;stroke-miterlimit:10;}
	.st3{fill:#0764D5;}
	.st4{fill:#F7F9FB;}
</style>
<circle class="st0" cx="64" cy="64" r="64"/>
<path class="st1" d="M71.6,29c-16.8,0-30.9,10.9-35,20.6c-6.1,14.4,0.2,25.7,1,30.4c2,11.6-3.1,14.2-3.8,15c3.3-0.2,5.3-2.6,7-5.3
	c1.3-2.4,1.9-5.2,2.1-8c0.7-5.2-1.5-10.8-1.3-16c0.5-7.8,6-15,12.6-19.1c10-5.9,21.9-5.3,30.9-1.1c1.8-3.9,5.5-11.6,5.5-11.6
	C84,30.4,77.7,29,71.6,29L71.6,29z M69.4,44.8c-0.8,0-1.5,0.1-2.1,0.1l-0.3,8.4c0.4,0,0.9,0.1,0.9,0.1c0.1-0.4,0.4-3.3,2.9-5.4
	c2.7-2.4,6.3-2.1,6.3-2.1C74.5,44.9,71.7,44.7,69.4,44.8L69.4,44.8z M65.4,45.1c-0.1,0.1-1.9,0.4-3.5,0.8l1.7,7.9
	c0.1,0,1.6-0.4,1.7-0.4L65.4,45.1L65.4,45.1z M60,46.5c-1.2,0.4-2.8,1-3.1,1.3l3.5,7c1.8-0.6,1.8-0.6,1.8-0.6L60,46.5L60,46.5z
	 M55.3,48.6c-1.4,0.7-2.4,1.4-2.8,1.8l5.1,5.9c0,0.1,1.5-0.8,1.5-0.9L55.3,48.6L55.3,48.6z M51.1,51.4c-1.1,1-1.5,1.4-2.2,2.3l6,4.6
	l1.3-1.1L51.1,51.4z M48,55c-0.6,0.8-1.1,1.6-1.5,2.5l6.3,3.1l1-1.3L48,55L48,55z M68.3,55.9c-1.9,0-3.8,0.3-5.5,0.9
	c-4.6,1.7-7.6,5-9.6,9.5c-3.3,7.5,1.4,13.2,1.4,19.2c0.2,2.2-1.1,6.7-0.9,6.7c5.9-0.8,10-2.7,15.1-3.6C72.3,91.6,84.4,98.7,87,99
	c0.2,0-3.1-10.5-2.4-22c-3.1,0.5-7-0.8-9.3-3.3c3.1-4.4,14.1-3.8,12.4,7.8c0,0.2,6.6,1.3,6.4,1.1c-4.1-5.1-5.9-9.8-8.2-15.7
	c-2.3-5.6-7-9.5-13.3-10.5C71.3,56,69.8,55.9,68.3,55.9L68.3,55.9z M45.5,59.3c-0.4,0.8-0.7,2-0.9,2.6l6.6,1.2
	c0.2-0.4,0.4-0.9,0.7-1.4L45.5,59.3L45.5,59.3z M44.3,63.7c-0.5,3.5-0.6,6.7-0.3,8.4c0,0,0.5-3,2.2-4.6c1.5-1.5,3.3-1.8,4-1.8
	c0,0,0.4-1.1,0.3-1.1L44.3,63.7L44.3,63.7z"/>
<rect x="-95.5" y="134.5" class="st2" width="90" height="90"/>
<rect x="-72" y="9" class="st1" width="14" height="14"/>
<rect x="-58" y="9" class="st0" width="14" height="14"/>
<rect x="-44" y="9" class="st3" width="14" height="14"/>
<rect x="-30" y="9" class="st4" width="14" height="14"/>
</svg>
