<?xml version="1.0" encoding="iso-8859-1"?>
<!-- Generator: Adobe Illustrator 22.0.1, SVG Export Plug-In . SVG Version: 6.00 Build 0)  -->
<svg version="1.1" id="Layer_1" xmlns="http://www.w3.org/2000/svg" xmlns:xlink="http://www.w3.org/1999/xlink" x="0px" y="0px"
	 viewBox="0 0 500 500" style="enable-background:new 0 0 500 500;" xml:space="preserve">
<g>
	<g>
		<path style="fill:#F04A54;" d="M410.426,256.109c1.753-8.166,5.729-15.59,7.482-23.757c0.96-4.47,1.922-8.959,2.235-13.521
			c0.244-3.557,0.09-7.129-0.125-10.687c-0.781-12.933-2.362-25.803-3.942-38.662c-0.468-3.805-0.937-7.618-1.787-11.357
			c-0.891-3.915-2.195-7.723-3.504-11.519c-2.593-7.52-5.216-15.03-7.869-22.53c-2.098-5.93-4.819-10.694-8.163-15.998
			c-6.557-10.401-14.555-19.797-22.054-29.511c4.176,0.628,12.016,3.914,16.191,4.543c-3.184-10.074-11.414-17.68-19.856-24.033
			c-9.909-7.457-16.825-15.979-27.413-22.146c-11.424-6.654-22.694-13.681-35.322-17.894c-12.933-4.314-42.83-9.976-55.67-5.393
			c10.968,1.794,19.317,10.428,28.529,16.645c-29.474-3.839-53.389-9.535-82.931-1.924c-7.494,1.931-15.466,2.824-19.215,9.594
			c12.309-0.643,26.872,1.601,39.179,2.294c-6.725,1.55-13.45,3.099-20.174,4.649c-8.182,1.885-23.482,11.248-23.482,11.248
			c-15.843,9.484-41.355,37.598-47.097,50.195c4.224,1.034,10.709,1.895,15.004,2.579c-11.373,9.148-21.112,19.132-25.418,33.078
			c-1.382,4.476-4.117,9.166-4.626,13.823c-0.758,6.935-1.516,13.881-1.645,20.856c-0.114,6.198,0.27,12.392,0.655,18.579
			c0.926,14.909-0.368,29.818,0.558,44.727c0.164,2.637,0.342,5.336,1.397,7.758s3.183,4.552,5.808,4.85l-3.664,0.977
			c-2.461-0.919-5.326,0.255-7.079,2.212s-2.605,4.547-3.256,7.092c-2.897,11.327-2.666,23.438,0.662,34.647
			c2.364,7.962,6.251,15.474,7.82,23.629c2.012,10.465,0.079,21.289,1.034,31.903c0.411,4.573,1.562,9.455,5.056,12.433
			c3.494,2.979,11.184,3.557,13.056-0.635l1.315-0.424c0.454,3.96,1.102,7.841,2.326,11.393
			c5.849,16.976,13.959,33.468,22.738,49.099c10.101,17.984,22.101,35.376,38.504,47.881c18.815,14.345,43.004,28.118,66.589,26.247
			h1.78c23.586,1.871,47.774-11.902,66.589-26.247c16.403-12.506,28.402-29.898,38.504-47.881
			c9.472-16.864,17.531-34.522,24.064-52.728l-0.277,0.327l4.181-9.887c4.439,4.439,6.228,5.736,9.431,4.327s5.14-4.808,5.849-8.234
			c0.71-3.426,0.408-6.967,0.377-10.465c-0.174-19.539,8.077-38.02,12.852-56.968c1.822-7.231,3.145-14.588,3.957-22.001
			c0.381-3.48,0.641-7.067-0.351-10.425c-0.991-3.358-3.489-6.478-6.902-7.258C419.645,250.998,414.864,251.671,410.426,256.109z"/>
	</g>
	<g style="opacity:0.5;">
		<g>
			<g>
				<path style="fill:#254765;" d="M384.75,219.603c4.329,0.748,1.566,7.563,0.783,14.37c-0.153,1.313-4.698,1.513-6.264,5.294
					c-2.178,5.259-4.896,11.432-5.715,19.534c-1.557,15.3-6.228,31.157-19.386,39.998c-6.399,4.294-15.12,8.224-25.281,9.441
					c-3.86,0.457-7.171,0.645-11.093,0.645c-2.279,0-4.764-0.064-7.681-0.175c-7.029-0.269-13.365-0.53-19.044-2.095
					c-23.373-6.477-33.174-26.506-41.787-47.683c-1.449-3.547-1.818-7.302-1.566-10.589c0.162-2.165,0.522-4.234,1.062-6.198
					c0.171-0.6,0.045-1.243-0.369-1.73c-1.179-1.4-8.217-3.269-12.276-4.26c-0.95-0.23-1.922-0.345-2.894-0.345
					s-1.944,0.115-2.894,0.345c-4.059,0.991-11.097,2.86-12.276,4.26c-0.414,0.487-0.54,1.13-0.369,1.73
					c0.54,1.965,0.9,4.034,1.062,6.198c0.252,3.286-0.117,7.042-1.566,10.589c-8.613,21.177-18.414,41.206-41.787,47.683
					c-5.679,1.565-12.015,1.826-19.053,2.095c-2.914,0.112-5.397,0.175-7.674,0.175c-3.919,0-7.232-0.189-11.091-0.645
					c-10.161-1.217-18.882-5.146-25.281-9.441c-13.158-8.841-17.829-24.698-19.386-39.998c-0.819-8.102-3.537-14.274-5.715-19.534
					c-1.566-3.782-6.111-3.982-6.264-5.294c-0.783-6.807-3.546-13.622,0.783-14.37c20.74-3.577,47.091-8.508,71.371-8.508
					c1.386,0,2.768,0.016,4.139,0.049c18.099,0.443,34.929,4.408,46.413,12.31c0.423,0.287,0.891,0.495,1.395,0.608
					c2.007,0.452,7.434,1.591,10.584,1.591c2.142,0,7.182-0.904,11.322-1.721c2.075-0.409,4.18-0.613,6.287-0.613
					c2.106,0,4.212,0.204,6.286,0.613c4.14,0.817,9.18,1.721,11.322,1.721c3.15,0,8.586-1.148,10.593-1.591
					c0.495-0.113,0.963-0.322,1.386-0.608c11.484-7.902,28.314-11.866,46.413-12.31c1.373-0.033,2.751-0.049,4.139-0.049
					C337.657,211.094,364.011,216.025,384.75,219.603z M365.958,258.931c4.036-39.639-17.436-42.429-43.863-42.429
					c-4.331,0-8.798,0.075-13.305,0.075c-32.004,0-56.295,13.796-51.678,42.354c3.15,19.473,14.76,36.738,35.532,42.493
					c5.049,1.4,10.683,1.626,16.929,1.86c2.615,0.103,4.84,0.162,6.882,0.162c3.461,0,6.396-0.169,9.804-0.579
					c9.027-1.078,16.785-4.564,22.473-8.389C360.423,286.619,364.572,272.528,365.958,258.931 M208.584,258.931
					c4.617-28.558-19.674-42.354-51.678-42.354c-4.508,0-8.972-0.075-13.305-0.075c-26.425,0-47.899,2.792-43.863,42.429
					c1.386,13.596,5.535,27.688,17.226,35.547c5.688,3.825,13.446,7.311,22.473,8.389c3.408,0.41,6.342,0.579,9.804,0.579
					c2.042,0,4.268-0.059,6.882-0.162c6.246-0.235,11.88-0.461,16.929-1.86C193.824,295.669,205.434,278.404,208.584,258.931"/>
			</g>
		</g>
	</g>
	<g>
		<g>
			<g>
				<path style="fill:#294E6F;" d="M98.433,352.931c-2.701,4.587-9.925,1.772-12.351-1.558c-3.081-4.229-3.159-10.111-3.24-15.118
					c-0.163-10.104,1.022-20.226-1.617-30.125c-2.621-9.832-7.447-18.817-8.948-28.98c-0.976-6.612-2.375-36.104,9.758-33.295
					c1.879,0.435,2.681-2.457,0.798-2.893c-12.381-2.867-13.9,16.394-14.197,24.427c-0.267,7.2,0.642,14.457,2.68,21.369
					c2.179,7.393,5.754,14.35,7.449,21.891c1.835,8.163,1.135,16.494,1.075,24.78c-0.041,5.652-0.116,12.063,2.365,17.307
					c3.022,6.387,14.258,11.453,18.818,3.711C102.005,352.778,99.413,351.267,98.433,352.931L98.433,352.931z"/>
			</g>
		</g>
		<g>
			<g>
				<path style="fill:#294E6F;" d="M364.98,352.53c3.015,2.971,6.342,6.566,10.89,4.712c4.551-1.855,6.697-6.817,7.227-11.402
					c0.956-8.262,0.064-16.313,1.635-24.614c1.593-8.419,4.165-16.609,6.675-24.788c2.442-7.956,4.809-15.923,6.425-24.095
					c1.419-7.177,3.412-15.626,2.22-22.943c-0.746-4.581-3.611-9.258-8.399-10.401c-4.518-1.078-8.081,1.962-11.138,4.885
					c-1.398,1.337,0.725,3.456,2.121,2.121c4.195-4.01,9.643-6.488,13.208,0.015c3.108,5.669,1.054,14.044,0.085,20.022
					c-1.834,11.31-5.158,22.192-8.499,33.125c-3.062,10.022-5.984,20.171-6.926,30.649c-0.525,5.843,0.719,12.303-0.792,17.987
					c-0.699,2.629-2.526,6.439-5.562,6.888c-2.981,0.441-5.129-2.39-7.049-4.282C365.724,349.052,363.602,351.172,364.98,352.53
					L364.98,352.53z"/>
			</g>
		</g>
	</g>
	<g>
		<g>
			<path style="fill:#294E6F;" d="M241.903,66.473c26.009-0.363,51.004,7.181,72.951,21.042
				c21.004,13.266,40.929,29.859,48.928,54.227c4.01,12.217,5.348,25.093,6.357,37.849c0.524,6.626,1.156,13.299,1.054,19.953
				c-0.069,4.469-1.825,9.336-1.204,13.629c1.028,7.105,4.253,14.396,6.114,21.34c1.479,5.517,2.913,10.911,2.184,16.674
				c-0.82,6.48-0.4,12.932-1.194,19.37c-1.904,15.445-7.614,30.364-10.117,45.75c-2.42,14.872-1.901,30.191-6.563,44.651
				c-0.446,1.383,1.532,2.609,2.507,1.459c0.092-0.109,0.185-0.218,0.277-0.327c-0.836-0.486-1.671-0.973-2.507-1.459
				c-9.493,26.232-21.726,52.442-38.284,75.021c-15.545,21.197-38.448,38.856-63.554,47.155c-24.629,8.142-51.44,3.489-73.605-9.154
				c-11.59-6.611-22.717-14.539-31.961-24.201c-8.8-9.197-16.064-19.719-22.539-30.646c-7.165-12.091-13.692-24.64-19.292-37.532
				c-2.822-6.496-5.819-13.259-7.559-20.14c-1.701-6.727-1.766-13.741-2.625-20.596c-1.711-13.655-5.204-26.949-7.831-40.429
				c-1.463-7.508-1.221-14.357-1.013-21.903c0.195-7.098-1.464-13.808-3.059-20.679c-1.755-7.558-3.317-14.006-1.12-21.713
				c1.743-6.118,4.508-11.78,6.413-17.803c2.119-6.699,0.582-14.514,0.497-21.412c-0.3-24.287,1.949-52.047,15.568-72.839
				c8.058-12.303,19.49-22.037,31.469-30.366c12.334-8.576,25.401-15.897,39.721-20.6C201.599,66.33,221.501,66.473,241.903,66.473
				c1.93,0,1.934-3,0-3c-18.31,0-36.345-0.382-54.215,4.46c-25.211,6.832-49.805,21.629-68.105,40.257
				c-8.746,8.903-15.644,19.283-19.783,31.096c-4.532,12.934-5.951,26.723-7.025,40.304c-0.779,9.845-0.673,19.642-0.258,29.503
				c0.458,10.884-6.757,20.492-8.393,31.231c-0.943,6.191,0.963,12.015,2.353,18c2.01,8.659,3.052,16.501,2.648,25.39
				c-0.666,14.668,4.286,29.105,6.92,43.403c2.53,13.735,2.325,28.246,7.12,41.443c5.154,14.187,11.724,27.834,18.946,41.074
				c12.735,23.344,27.794,44.019,49.917,59.228c11.201,7.701,23.4,14.428,36.567,18.066c11.302,3.123,24.289,3.558,35.927,2.19
				c14.479-1.702,28.115-7.959,40.411-15.543c12.573-7.754,24.113-16.876,33.643-28.212c20.335-24.189,34.33-54.431,45.008-83.938
				c0.502-1.386-1.552-2.586-2.507-1.459c-0.092,0.109-0.185,0.218-0.277,0.327c0.836,0.486,1.671,0.973,2.507,1.459
				c4.377-13.574,4.132-27.812,6.123-41.801c2.083-14.634,6.536-28.741,9.605-43.167c1.365-6.416,0.848-12.352,1.316-18.797
				c0.48-6.623,1.637-11.852,0.127-18.47c-1.966-8.616-4.613-17.105-7.126-25.575c-1.036-3.492,0.473-7.091,0.708-10.751
				c0.469-7.275-0.225-14.588-0.782-21.837c-1.001-13.022-2.219-26.202-6.072-38.743c-7.143-23.251-24.361-39.855-44-53.204
				c-24.314-16.528-51.685-26.35-81.301-25.936C239.975,63.5,239.969,66.5,241.903,66.473z"/>
		</g>
	</g>
	<g>
		<g>
			<path style="fill:#294E6F;" d="M380.802,245.343c1.903-8.111,5.596-15.641,7.482-23.757c1.763-7.582,2.651-15.045,2.264-22.827
				c-0.814-16.373-2.357-33.247-5.317-49.381c-1.494-8.141-4.612-15.942-7.327-23.732c-2.459-7.054-4.615-14.339-8.011-21.017
				c-7.111-13.986-17.648-25.967-27.204-38.289c-0.486,0.836-0.973,1.671-1.459,2.507c5.528,1.023,10.663,3.52,16.191,4.543
				c1.037,0.192,2.249-0.674,1.845-1.845c-5.088-14.753-18.351-22.474-29.4-32.38c-12.11-10.858-25.193-19.336-39.766-26.627
				C278.436,6.704,266.15,3.3,253.316,1.207c-10.861-1.771-23.45-3.711-34.157-0.175c-1.301,0.43-1.548,2.591,0,2.893
				c11.069,2.157,19.19,10.302,28.171,16.494c0.252-0.932,0.505-1.863,0.757-2.795c-19.55-2.582-39.169-6.479-58.981-5.531
				c-9.265,0.444-18.177,2.189-27.173,4.349c-6.81,1.636-13.374,3.33-17.288,9.595c-0.589,0.943,0.17,2.304,1.295,2.257
				c13.109-0.55,26.123,1.496,39.179,2.294c-0.133-0.982-0.266-1.964-0.399-2.946c-11.886,2.739-23.366,4.89-34.245,10.556
				c-6.401,3.334-12.535,6.97-18.184,11.479c-8.513,6.794-16.249,14.642-23.415,22.828c-5.846,6.678-11.982,13.837-15.805,21.919
				c-0.393,0.83-0.118,1.971,0.896,2.203c4.951,1.135,9.99,1.797,15.004,2.579c-0.221-0.836-0.441-1.671-0.662-2.507
				c-9.815,7.966-19.034,17.037-24.021,28.875c-2.26,5.363-4.97,11.434-6.161,17.134c-1.466,7.016-1.734,14.713-1.92,21.857
				c-0.204,7.828,0.517,15.606,0.824,23.419c0.305,7.776,0.095,15.558,0.031,23.336c-0.057,6.956-0.349,14.17,0.646,21.073
				c0.702,4.877,2.863,9.291,7.994,10.484c1.878,0.436,2.68-2.455,0.798-2.893c-7.668-1.782-6.33-13.946-6.423-19.913
				c-0.107-6.807,0.076-13.613,0.109-20.419c0.063-12.97-1.525-25.924-0.821-38.887c0.345-6.344,0.411-13.503,2.284-19.589
				c1.731-5.623,3.957-11.652,6.528-16.942c5.01-10.311,13.481-18.291,22.257-25.414c0.832-0.675,0.41-2.34-0.662-2.507
				c-5.014-0.782-10.053-1.444-15.004-2.579c0.299,0.735,0.598,1.469,0.896,2.203c3.725-7.876,9.64-14.807,15.336-21.312
				c6.9-7.881,14.328-15.427,22.455-22.052c5.568-4.539,11.641-8.159,17.984-11.497c10.83-5.698,22.234-7.812,34.082-10.542
				c1.718-0.396,1.226-2.847-0.399-2.946c-13.056-0.798-26.07-2.844-39.179-2.294c0.432,0.752,0.863,1.505,1.295,2.257
				c4.42-7.073,14.642-8.158,22.141-9.823c8.8-1.954,17.782-2.828,26.791-2.779c17.443,0.094,34.679,3.398,51.919,5.675
				c1.619,0.214,1.834-2.053,0.757-2.795c-9.216-6.354-17.533-14.584-28.887-16.796c0,0.964,0,1.929,0,2.893
				c10.549-3.484,23.264-1.425,33.937,0.405c12.1,2.075,23.672,5.286,34.693,10.8c13.725,6.867,26.521,14.766,37.927,25.046
				c10.846,9.777,24.851,17.642,29.86,32.168c0.615-0.615,1.23-1.23,1.845-1.845c-5.528-1.023-10.663-3.52-16.191-4.543
				c-1.55-0.287-2.38,1.32-1.459,2.507c9.406,12.127,19.736,23.915,26.735,37.681c3.565,7.011,5.783,14.764,8.362,22.178
				c2.497,7.18,5.297,14.353,6.673,21.854c2.91,15.862,4.414,32.483,5.21,48.583c0.399,8.068-0.563,15.94-2.565,23.768
				c-1.914,7.486-5.306,14.483-7.074,22.017C377.469,246.423,380.361,247.225,380.802,245.343L380.802,245.343z"/>
		</g>
	</g>
	<g>
		<g>
			<g>
				<path style="fill:#254765;" d="M275.193,31.122c0.082,0,0.166,0.006,0.252,0.018c10.737,1.53,20.349,8.076,28.701,14.361
					c9.027,6.798,17.325,14.466,25.227,22.455c1.025,1.037,0.008,2.492-1.126,2.492c-0.339,0-0.689-0.13-0.998-0.44
					c-7.245-7.328-14.814-14.37-22.977-20.742c-8.532-6.65-18.495-13.744-29.619-15.335
					C272.833,33.673,273.494,31.122,275.193,31.122z"/>
			</g>
		</g>
	</g>
	<g>
		<g>
			<g>
				<path style="fill:#254765;" d="M141.91,66.227c1.256,0,2.088,1.891,0.74,2.742c-7.803,4.903-13.986,10.328-19.557,17.543
					c-0.338,0.437-0.805,0.619-1.265,0.619c-1.093,0-2.145-1.027-1.327-2.079c5.886-7.624,12.393-13.405,20.637-18.586
					C141.403,66.299,141.664,66.227,141.91,66.227z"/>
			</g>
		</g>
	</g>
	<g>
		<g>
			<g>
				<path style="fill:#254765;" d="M213.073,33.654c7.767,0,14.91,1.877,22.61,4.578c3.573,1.252,7.146,2.538,10.656,3.955
					c0.765,0.304,2.376,0.626,2.763,1.46c0.438,0.962-0.153,2.196-1.249,2.196c-0.142,0-0.293-0.021-0.452-0.066l-0.117-0.035
					c-0.279-0.08-0.497-0.211-0.662-0.374c0.042,0.112,0.045,0.157,0.011,0.157c-0.097,0-0.491-0.363-1.095-0.548
					c-0.828-0.252-1.629-0.643-2.439-0.948c-2.97-1.139-5.967-2.225-8.973-3.269c-7.089-2.468-13.804-4.256-21.032-4.256
					c-2.012,0-4.065,0.139-6.175,0.44c-0.087,0.012-0.171,0.018-0.254,0.018c-1.705,0-2.359-2.552-0.547-2.809
					C208.509,33.812,210.817,33.654,213.073,33.654z"/>
			</g>
		</g>
	</g>
</g>
</svg>
