<?xml version="1.0" encoding="utf-8"?>
<!-- Generator: Adobe Illustrator 22.0.1, SVG Export Plug-In . SVG Version: 6.00 Build 0)  -->
<svg version="1.1" id="Layer_1" xmlns="http://www.w3.org/2000/svg" xmlns:xlink="http://www.w3.org/1999/xlink" x="0px" y="0px"
	 viewBox="0 0 500 500" style="enable-background:new 0 0 500 500;" xml:space="preserve">
<style type="text/css">
	.st0{fill:#F04A54;}
	.st1{fill:#F1F2F2;stroke:#F1F2F2;stroke-miterlimit:10;}
</style>
<rect x="27.5" y="27.5" class="st0" width="445" height="445"/>
<g>
	<g>
		<g>
			<g>
				<path class="st1" d="M370.3,230.1c3.5,0.6,1.3,6.1,0.6,11.5c-0.1,1.1-3.8,1.2-5,4.2c-1.7,4.2-3.9,9.2-4.6,15.6
					c-1.3,12.2-5,24.9-15.5,32c-5.1,3.4-12.1,6.6-20.2,7.6c-3.1,0.4-5.7,0.5-8.8,0.5c-1.8,0-3.8-0.1-6.2-0.1
					c-5.6-0.2-10.7-0.4-15.3-1.7c-18.7-5.2-26.5-21.2-33.4-38.2c-1.2-2.8-1.4-5.8-1.3-8.5c0.1-1.7,0.4-3.4,0.9-5
					c0.1-0.5,0-1-0.3-1.4c-0.9-1.1-6.6-2.6-9.8-3.4c-0.8-0.2-1.5-0.3-2.3-0.3s-1.6,0.1-2.3,0.3c-3.3,0.8-8.9,2.3-9.8,3.4
					c-0.3,0.4-0.4,0.9-0.3,1.4c0.4,1.6,0.7,3.2,0.9,5c0.2,2.6-0.1,5.6-1.3,8.5c-6.9,17-14.7,33-33.4,38.2c-4.5,1.3-9.6,1.5-15.2,1.7
					c-2.4,0.1-4.4,0.1-6.2,0.1c-3.1,0-5.8-0.1-8.8-0.5c-8.1-1-15.1-4.1-20.2-7.6c-10.5-7.1-14.3-19.8-15.5-32
					c-0.7-6.5-2.8-11.4-4.6-15.6c-1.3-3-4.9-3.2-5-4.2c-0.6-5.4-2.8-10.9,0.6-11.5c16.6-2.9,37.7-6.8,57.1-6.8c1.1,0,2.2,0,3.3,0
					c14.5,0.4,28,3.5,37.1,9.9c0.3,0.2,0.7,0.4,1.1,0.5c1.6,0.4,5.9,1.3,8.5,1.3c1.7,0,5.7-0.7,9.1-1.4c1.7-0.3,3.3-0.5,5-0.5
					s3.4,0.2,5,0.5c3.3,0.7,7.4,1.4,9.1,1.4c2.5,0,6.9-0.9,8.5-1.3c0.4-0.1,0.8-0.3,1.1-0.5c9.2-6.3,22.7-9.5,37.1-9.9
					c1.1,0,2.2,0,3.3,0C332.6,223.3,353.7,227.3,370.3,230.1z M355.2,261.6c3.2-31.7-13.9-34-35.1-34c-3.5,0-7.1,0.1-10.7,0.1
					c-25.6,0-45.1,11-41.4,33.9c2.5,15.6,11.8,29.4,28.4,34c4,1.1,8.5,1.3,13.6,1.5c2.1,0.1,3.8,0.1,5.5,0.1c2.8,0,5.1-0.1,7.9-0.5
					c7.2-0.9,13.4-3.7,18-6.7C350.8,283.8,354.1,272.5,355.2,261.6 M229.3,261.6c3.7-22.9-15.8-33.9-41.4-33.9
					c-3.6,0-7.2-0.1-10.7-0.1c-21.1,0-38.3,2.2-35.1,34c1.1,10.9,4.4,22.2,13.8,28.5c4.5,3.1,10.8,5.9,18,6.7
					c2.7,0.3,5.1,0.5,7.9,0.5c1.6,0,3.4,0,5.5-0.1c5-0.2,9.5-0.4,13.5-1.5C217.5,291,226.8,277.2,229.3,261.6"/>
			</g>
		</g>
	</g>
	<g>
		<g>
			<g>
				<path class="st1" d="M140.9,336.7c-3.6,5.7-10.1-1.6-11.1-5c-1-3.5-0.9-7.4-0.9-11c0.1-7.5,0.6-14.9-1.5-22.1
					c-2.1-7.5-5.8-14.4-6.9-22.2c-0.7-4.9-2-28.4,7.4-26.5c1.9,0.4,2.7-2.5,0.8-2.9c-9.8-2-11.2,11.7-11.7,18.4
					c-0.4,5.7,0.2,11.4,1.6,16.9c1.7,6.4,4.8,12.4,6.3,18.8c2.6,10.9-2.2,24.2,3,34.4c2.7,5.3,11.6,8.8,15.5,2.7
					C144.5,336.6,141.9,335.1,140.9,336.7L140.9,336.7z"/>
			</g>
		</g>
		<g>
			<g>
				<path class="st1" d="M354.2,336.7c2.4,2.4,4.9,5.1,8.5,4c4-1.2,6-5.6,6.4-9.5c0.9-6.7,0.1-13.3,1.4-20.1
					c1.3-6.8,3.4-13.4,5.4-20.1c1.9-6.3,3.8-12.7,5.1-19.2c1.1-5.7,2.7-12.4,1.7-18.1c-0.7-3.7-3-7.5-6.9-8.5
					c-3.7-0.9-6.7,1.6-9.2,4c-1.4,1.3,0.7,3.4,2.1,2.1c1.8-1.7,3.6-3.7,6.3-3.2c3.5,0.6,4.7,4.8,5,7.7c0.3,4.4-0.7,9.2-1.5,13.5
					c-1.5,8.3-4,16.3-6.5,24.4c-2.3,7.6-4.5,15.3-5.4,23.2c-0.4,4.1-0.1,8.1-0.3,12.2c-0.1,2.5-0.5,5.4-2.4,7.3
					c-3.2,3.1-5.3,0.4-7.7-1.9C355,333.3,352.9,335.4,354.2,336.7L354.2,336.7z"/>
			</g>
		</g>
	</g>
	<g>
		<g>
			<path class="st1" d="M256,107.9c21.1-0.3,41.2,5.9,58.9,17.2c16.7,10.6,32.3,23.9,38.5,43.3c3.1,9.9,4.2,20.2,5,30.5
				c0.4,5.1,0.9,10.3,0.8,15.4c-0.1,3.6-1.4,7.4-0.9,10.9c0.9,6.1,3.7,12.3,5.2,18.3c1.2,4.7,1.8,8.9,1.1,13.8
				c-0.8,5.3-0.1,10.5-1,15.8c-2.1,11.6-5.9,22.8-7.8,34.5c-1.9,11.9-1.5,24.1-5.2,35.6c-0.4,1.4,1.5,2.6,2.5,1.5
				c0.1-0.1,0.1-0.2,0.2-0.3c-0.8-0.5-1.7-1-2.5-1.5c-14.7,40.6-38.3,84.1-82.4,97.9c-20,6.3-41.5,1.9-59.2-8.6
				c-18.6-11-32.1-26-42.9-44.6c-6-10.3-11.5-21.1-16-32.1c-1.9-4.7-3.9-9.4-4.9-14.4c-1-5.2-1.1-10.5-1.8-15.8
				c-1.6-11.5-4.9-22.7-6.7-34.2c-0.8-5.2-0.2-10.2-0.2-15.4c0-5.4-1.4-10.6-2.6-15.9c-1.3-5.8-2.5-10.6-0.9-16.5
				c1.5-5.2,3.9-10,5.4-15.1c1.5-5.2,0.3-11.2,0.2-16.5c-0.2-19.4,1.5-41.5,12.3-58.1c6.4-9.8,15.4-17.5,24.9-24.2
				c9.9-6.9,20.4-12.8,31.9-16.6C223.7,107.8,239.7,107.9,256,107.9c1.9,0,1.9-3,0-3c-14.8,0-29.4-0.3-43.8,3.7
				c-19.9,5.5-39.3,17.1-53.9,31.8c-15.6,15.7-20.1,35.4-21.9,56.8c-0.7,8.3-0.6,16.6-0.3,24.9c0.4,8.6-5.5,16.3-6.7,24.8
				c-0.7,4.8,0.7,9.3,1.8,13.9c1.4,6.2,2.7,12.1,2.4,18.5c-0.6,12,2.8,23.1,5,34.8c2.2,11.3,1.9,23.5,5.8,34.4
				c4,11.4,9.3,22.3,15,33c10.1,18.7,22,35.5,39.6,47.8c17.6,12.3,36.7,19.3,58.3,17.1c22.8-2.3,45.7-17.9,60.2-35
				c16.4-19.4,27.7-43.8,36.3-67.5c0.5-1.4-1.6-2.6-2.5-1.5c-0.1,0.1-0.1,0.2-0.2,0.3c0.8,0.5,1.7,1,2.5,1.5
				c3.5-11,3.3-22.5,4.9-33.8c1.7-11.4,5-22.4,7.5-33.6c1.1-5.1,1-9.7,1.2-14.8c0.2-4.9,1.4-9.1,0.5-13.9c-1.4-7.5-4.4-14.6-6-22.1
				c-0.6-2.9,0.3-5.7,0.5-8.7c0.4-6-0.2-12.1-0.7-18.1c-0.8-9.9-1.7-20-4.6-29.6c-5.6-19.1-19.6-32.8-35.7-43.7
				c-19.5-13.2-41.4-21-65.1-20.7C254,104.9,254,107.9,256,107.9z"/>
		</g>
	</g>
	<g>
		<g>
			<path class="st1" d="M367.4,250.8c1.6-6.5,4.5-12.5,6-19c1.4-6,2.1-11.9,1.8-18.1c-0.6-13.1-1.9-26.5-4.2-39.4
				c-1.2-6.6-3.6-12.9-5.8-19.1c-2-5.7-3.7-11.6-6.5-17.1c-5.7-11.3-14.2-20.9-21.9-30.8c-0.5,0.8-1,1.7-1.5,2.5
				c4.4,0.8,8.5,2.8,13,3.6c1,0.2,2.3-0.7,1.8-1.8c-4.2-11.8-14.5-17.9-23.4-25.9c-9.8-8.8-20.3-15.6-32-21.5
				c-9.3-4.6-19-7.4-29.2-9.1c-8.9-1.5-19.1-3-27.9-0.2c-1.3,0.4-1.5,2.6,0,2.9c8.8,1.8,15.3,8.2,22.5,13.2c0.3-0.9,0.5-1.9,0.8-2.8
				c-15.9-2.1-31.9-5.3-48-4.4c-7.3,0.4-14.4,1.8-21.5,3.6c-5.4,1.3-10.3,2.8-13.5,7.7c-0.6,0.9,0.2,2.3,1.3,2.3
				c10.5-0.4,20.9,1.2,31.4,1.8c-0.1-1-0.3-2-0.4-2.9c-9.5,2.2-18.6,3.9-27.3,8.4c-5.1,2.7-10,5.6-14.6,9.1
				c-6.9,5.4-13.1,11.8-18.9,18.3c-4.7,5.4-9.7,11.2-12.8,17.7c-0.4,0.8-0.1,2,0.9,2.2c4,0.9,8,1.4,12,2.1c-0.2-0.8-0.4-1.7-0.7-2.5
				c-7.6,6.2-14.9,13.2-18.9,22.4c-2,4.4-4.2,9.5-5.2,14.2c-1.3,5.7-1.5,12-1.6,17.8c-0.4,12.9,0.7,25.8,0.7,38.7
				c0,7.1-2.3,22.1,7.1,24.5c1.9,0.5,3.7-2.4,1.8-2.9c-6-1.5-5.9-11.8-5.9-16.6c-0.1-5.3,0.1-10.6,0.1-15.9c0-10.5-1.2-21-0.6-31.4
				c0.6-10.2,2.7-19.7,7.3-28.8c4-8,10.6-14.1,17.5-19.7c0.8-0.7,0.4-2.3-0.7-2.5c-4-0.6-8-1.2-12-2.1c0.3,0.7,0.6,1.5,0.9,2.2
				c3-6.3,7.8-11.9,12.3-17.1c5.5-6.3,11.4-12.3,17.9-17.6c4.3-3.5,9-6.3,13.8-8.9c8.8-4.7,18-6.4,27.6-8.6c1.7-0.4,1.2-2.8-0.4-2.9
				c-10.5-0.7-20.9-2.2-31.4-1.8c0.4,0.8,0.9,1.5,1.3,2.3c3.6-5.5,11.4-6.3,17.3-7.7c7.3-1.6,14.7-2.3,22.1-2.3
				c13.8,0.1,27.4,2.7,41,4.5c1.6,0.2,1.8-2.1,0.8-2.8c-7.4-5.1-14.1-11.6-23.2-13.5c0,1,0,1.9,0,2.9c8.4-2.7,18.5-1.1,27,0.3
				c9.7,1.7,19,4.2,27.8,8.7c10.6,5.3,20.7,11.4,29.6,19.4c8.8,7.9,20.3,14.4,24.5,26.2c0.6-0.6,1.2-1.2,1.8-1.8
				c-4.4-0.8-8.5-2.8-13-3.6c-1.6-0.3-2.4,1.3-1.5,2.5c7.5,9.7,15.9,19.2,21.4,30.2c2.7,5.5,4.5,11.5,6.5,17.3
				c2.1,6,4.4,12,5.5,18.2c2.2,12.7,3.5,25.8,4.1,38.6c0.3,6.5-0.5,12.8-2.2,19c-1.5,5.9-4.1,11.3-5.6,17.2
				C364.1,251.9,367,252.7,367.4,250.8L367.4,250.8z"/>
		</g>
	</g>
	<g>
		<g>
			<g>
				<path class="st1" d="M282.6,79c0.1,0,0.2,0,0.3,0c8.6,1.3,16.2,6.4,22.9,11.4c7.3,5.5,14,11.7,20.4,18.1c1,1,0,2.5-1.1,2.5
					c-0.3,0-0.7-0.1-1-0.4c-5.7-5.8-11.7-11.4-18.2-16.4c-6.9-5.4-14.8-11-23.8-12.4C280.3,81.6,280.9,79,282.6,79z"/>
			</g>
		</g>
	</g>
	<g>
		<g>
			<g>
				<path class="st1" d="M175.9,107.1c1.3,0,2.1,1.9,0.7,2.7c-6.2,3.9-11.1,8.2-15.6,13.9c-0.3,0.4-0.8,0.6-1.3,0.6
					c-1.1,0-2.1-1-1.3-2.1c4.7-6.1,10-10.8,16.6-15C175.4,107.2,175.7,107.1,175.9,107.1z"/>
			</g>
		</g>
	</g>
	<g>
		<g>
			<g>
				<path class="st1" d="M233,81c5.5,0,10.7,1.1,16.2,3.1c3.8,1.3,8.8,2.3,12.2,4.6c1.2,0.8,0.7,2.7-0.7,2.7c-0.1,0-0.3,0-0.4-0.1
					l-0.1,0c-0.3-0.1-0.5-0.2-0.7-0.4c-2.7-1.6-6.5-2.4-9.4-3.4c-5.8-2-11.2-3.5-17.2-3.5c-1.6,0-3.2,0.1-4.8,0.3
					c-0.1,0-0.2,0-0.2,0c-1.7,0-2.4-2.6-0.6-2.8C229.2,81.2,231.1,81,233,81z"/>
			</g>
		</g>
	</g>
</g>
</svg>
